<svg xmlns="http://www.w3.org/2000/svg" viewBox="0 0 26 26" enable-background="new 0 0 26 26">
    <path d="M 0.90625 -0.03125 A 1.0001 1.0001 0 0 0 0.78125 0 A 1.0001 1.0001 0 0 0 0.28125 1.71875 L 24.28125 25.71875 A 1.016466 1.016466 0 1 0 25.71875 24.28125 L 17 15.5625 L 17 7.5 C 17 6.8 14.5 6 8.5 6 C 8.128125 6 7.7915154 5.9981258 7.4375 6 L 1.71875 0.28125 A 1.0001 1.0001 0 0 0 0.90625 -0.03125 z M 25.375 6.03125 C 25.195703 6.0447266 25.01875 6.1125 24.90625 6.1875 L 18.40625 10.40625 C 18.20625 10.60625 18 10.8875 18 11.1875 L 18 14.8125 C 18 15.1125 18.10625 15.39375 18.40625 15.59375 L 24.90625 19.8125 C 25.10625 19.9125 25.90625 20.4 25.90625 19 L 25.90625 7 C 25.96875 6.1875 25.673828 6.0087891 25.375 6.03125 z M 2.3125 6.40625 C 0.7125 6.70625 0 7.1 0 7.5 L 0 18.5 C 0 19.2 2.5 20 8.5 20 C 11.7 20 13.9125 19.80625 15.3125 19.40625 L 2.3125 6.40625 z"/>
</svg>