<svg xmlns="http://www.w3.org/2000/svg" xmlns:xlink="http://www.w3.org/1999/xlink" version="1.1" x="0px" y="0px" viewBox="0 0 1000 1000" enable-background="new 0 0 1000 1000" xml:space="preserve">
<g><path d="M611,339V105.1c0-25.2,23.1-45.6,51.6-45.6c28.5,0,27.3,20.4,27.3,45.6v131.5L906.9,23.7c19-18.6,49.8-18.6,68.9,0c19,18.6,19,48.9,0,67.5l-217.2,213h136.2c25.6,0,46.4,7.3,46.4,35.2c0,27.9-20.8,50.5-46.4,50.5H657.4c-1.9,0-3.8-0.4-5.6-0.6c-0.1,0-0.1,0-0.1,0c-6.2-0.8-12-3-17.1-6.2c-0.8-0.4-1.5-0.8-2.2-1.3c-1-0.7-1.9-1.5-2.8-2.2c-1.6-1.2-3.2-2.2-4.6-3.6c-1.8-1.8-3.3-3.7-4.7-5.6c-0.2-0.3-0.5-0.6-0.7-0.8c-0.9-1.2-1.6-2.5-2.3-3.8c-1.1-1.7-2-3.4-2.8-5.3c-0.2-0.4-0.3-0.8-0.4-1.2c-0.9-2.4-1.7-4.8-2.2-7.3c-0.5-2.4-0.7-4.9-0.8-7.3c0-0.1-0.1-0.2-0.1-0.4v-0.1c-0.1-1.3-0.1-2.6,0-3.9v-0.5c0-0.1-0.1-0.3-0.1-0.4C610.9,339.3,611,339.1,611,339z M975.7,976.2c-19,18.7-49.8,18.7-68.9,0L689.8,762.5v132.4c0,25.3,1.3,45.8-27.3,45.8c-28.4,0-51.6-20.5-51.6-45.8V661.4c0-0.1-0.1-0.3-0.1-0.4c0-0.1,0.1-0.3,0.1-0.4V660c-0.1-1.3-0.1-2.6,0-3.9V656c0-0.1,0.1-0.2,0.1-0.4c0.1-2.5,0.3-4.9,0.8-7.3c0.5-2.5,1.3-5,2.2-7.3c0.2-0.4,0.3-0.9,0.4-1.2c0.8-1.9,1.8-3.6,2.8-5.3c0.8-1.3,1.5-2.6,2.3-3.8c0.2-0.3,0.5-0.5,0.7-0.8c1.5-2,2.9-3.9,4.7-5.7c1.4-1.4,3-2.4,4.5-3.6c1-0.8,1.9-1.5,2.8-2.2c0.7-0.5,1.4-0.8,2.1-1.2c5.2-3.3,11-5.4,17.2-6.2h0c1.9-0.2,3.7-0.6,5.6-0.6h237.3c25.6,0,46.4,22.7,46.4,50.7c0,28-20.8,33.6-46.4,33.6H758.5l217.2,213.8C994.8,927.1,994.8,957.5,975.7,976.2z M235.3,694.6H105.7c-24.9,0-45.2-22.7-45.2-50.7c0-28,20.3-33.6,45.2-33.6h239.8c1.8,0,3.6,0.4,5.4,0.6c0.1,0,0.1,0,0.1,0c6,0.8,11.6,3,16.7,6.2c0.7,0.4,1.4,0.8,2.1,1.2c1,0.7,1.8,1.5,2.7,2.2c1.5,1.2,3.1,2.2,4.4,3.6c1.8,1.8,3.2,3.7,4.6,5.7c0.2,0.3,0.4,0.5,0.6,0.8c0.9,1.2,1.6,2.5,2.3,3.8c1,1.7,2,3.4,2.7,5.3c0.2,0.4,0.3,0.8,0.4,1.2c0.9,2.4,1.7,4.8,2.1,7.3c0.5,2.4,0.7,4.8,0.8,7.3c0,0.2,0.1,0.3,0.1,0.4v0.1c0.1,1.3,0.1-14.5,0-13.2v0.5c0,0.2,0.1,0.3,0.1,0.4c0,0.2-0.1,0.3-0.1,0.4v250.6c0,25.3-22.5,45.8-50.2,45.8c-27.7,0-38.3-20.5-38.3-45.8V762.5L90.8,976.2c-18.5,18.7-48.5,18.7-67,0c-18.5-18.7-18.5-49.1,0-67.8L235.3,694.6z M23.9,23.7c18.5-18.6,48.5-18.6,67,0l211.2,212.8V105.1c0-25.2,10.6-45.6,38.3-45.6c27.7,0,50.2,20.4,50.2,45.6V339c0,0.2,0.1,0.3,0.1,0.4c0,0.1-0.1,0.3-0.1,0.4v0.5c0.1,1.3,0.1,2.6,0,3.9v0.1c0,0.1-0.1,0.2-0.1,0.4c-0.1,2.4-0.3,4.9-0.8,7.3c-0.5,2.5-1.2,4.9-2.1,7.3c-0.2,0.4-0.2,0.8-0.4,1.2c-0.8,1.8-1.7,3.6-2.7,5.3c-0.7,1.3-1.4,2.5-2.3,3.8c-0.2,0.3-0.4,0.5-0.6,0.8c-1.5,1.9-2.9,3.9-4.6,5.6c-1.3,1.4-3,2.4-4.5,3.6c-0.9,0.8-1.8,1.5-2.7,2.2c-0.7,0.5-1.4,0.8-2.1,1.3c-5.1,3.2-10.6,5.3-16.7,6.2c-0.1,0-0.1,0-0.1,0c-1.8,0.2-3.6,0.6-5.4,0.6H105.7c-24.9,0-45.2-22.6-45.2-50.5c0-27.9,20.3-35.2,45.2-35.2h129.6L23.9,91.2C5.4,72.6,5.4,42.4,23.9,23.7z"/></g>
</svg>